<?xml version="1.0" standalone="no"?>
<!DOCTYPE svg PUBLIC "-//W3C//DTD SVG 1.1//EN" "http://www.w3.org/Graphics/SVG/1.1/DTD/svg11.dtd" >
<svg xmlns="http://www.w3.org/2000/svg">
<metadata></metadata>
<defs>
<font id="blue_highway_condensedregular" horiz-adv-x="1128" >
<font-face units-per-em="2048" ascent="1638" descent="-410" />
<missing-glyph horiz-adv-x="428" />
<glyph horiz-adv-x="0" />
<glyph unicode="&#xd;" horiz-adv-x="428" />
<glyph unicode=" "  horiz-adv-x="428" />
<glyph unicode="&#x09;" horiz-adv-x="428" />
<glyph unicode="&#xa0;" horiz-adv-x="428" />
<glyph unicode="!" horiz-adv-x="358" d="M113 129q0 37 16 72q18 43 51 43t53 -43q17 -33 17 -72t-17 -72q-18 -43 -53 -43q-33 0 -53 43q-14 35 -14 72zM133 700v449h96v-449l-14 -342h-68z" />
<glyph unicode="&#x22;" horiz-adv-x="583" d="M117 1196h98l-25 -491h-49zM369 1196h100l-25 -491h-49z" />
<glyph unicode="#" horiz-adv-x="899" d="M98 299v129h168l49 313h-157v129h178l45 279h70l-45 -279h196l45 279h68l-45 -279h139v-129h-160l-51 -313h152v-129h-175l-47 -285h-65l47 285h-199l-47 -285h-67l47 285h-146zM332 426h200l52 317h-201z" />
<glyph unicode="$" horiz-adv-x="747" d="M100 184l45 152q63 -43 168 -64v277q-213 76 -213 274q0 172 213 224v102h125v-96q111 -16 176 -66l-39 -156q-43 29 -137 56v-193q213 -61 213 -280q0 -248 -213 -297v-103h-125v101q-125 18 -213 69zM233 797q0 -49 80 -80v180q-80 -39 -80 -100zM438 270q88 54 88 144 q0 68 -88 106v-250z" />
<glyph unicode="%" horiz-adv-x="837" d="M80 946q0 68 29 127q35 74 96 74t96 -74q29 -59 29 -127t-29 -127q-37 -72 -96 -71q-59 0 -96 71q-29 59 -29 127zM86 946q0 -59 29 -108q35 -59 90 -60q55 0 90 60q29 49 29 108q0 61 -29 111q-33 59 -90 59t-90 -59q-29 -49 -29 -111zM213 16l324 1131h67l-323 -1131 h-68zM502 217q0 68 28 127q37 72 97 72q59 0 94 -74q29 -59 29 -125q0 -68 -29 -127q-35 -74 -94 -74q-61 0 -97 74q-29 59 -28 127zM508 217q0 -61 29 -111q33 -59 90 -59q55 0 90 59q26 50 26 111q0 59 -28 109q-33 59 -88 59q-57 0 -90 -57q-29 -49 -29 -111z" />
<glyph unicode="&#x26;" horiz-adv-x="952" d="M84 330q0 102 37 170q27 49 110 133q-106 133 -106 285q0 119 66.5 186t185.5 67q227 0 233 -241l-139 -60q-12 139 -104 140q-102 0 -103 -125q0 -61 142 -244q98 -121 196 -240q43 98 49 248h137v-57q0 -182 -73 -326l176 -250h-186l-87 117q-137 -141 -251 -141 q-139 0 -215 102q-68 90 -68 236zM231 377q0 -74 37 -135q45 -70 115 -70q84 1 133 107l-203 249q-49 -51 -59 -67q-23 -35 -23 -84z" />
<glyph unicode="'" horiz-adv-x="364" d="M123 1081q0 37 14 72q20 43 53 43q35 0 54 -43q16 -33 16 -72q0 -225 -108 -250l2 11q61 18 65 127h-29q-35 0 -53 41q-14 33 -14 71z" />
<glyph unicode="(" horiz-adv-x="458" d="M98 459q0 393 164 737h111q-20 -35 -60 -109q-127 -270 -127 -628q1 -380 189 -738h-113q-164 344 -164 738z" />
<glyph unicode=")" horiz-adv-x="497" d="M113 -279q104 195 146 358t42 380q0 422 -186 737h110q164 -346 164 -737q0 -393 -164 -738h-112z" />
<glyph unicode="*" horiz-adv-x="905" d="M143 512l265 229l-265 232l47 104l248 -250l-6 418h80l-6 -418l252 248l47 -104l-268 -228l268 -231l-47 -102l-254 256l8 -426h-80l6 415l-248 -247z" />
<glyph unicode="+" horiz-adv-x="604" d="M166 543v168h123v182h98v-182h115v-168h-115v-181h-98v181h-123z" />
<glyph unicode="," horiz-adv-x="344" d="M111 129q0 39 16 72q20 43 53 43t51 -43q17 -35 17 -72q0 -225 -107 -252v10q61 18 66 129l-29 -2q-35 0 -53 43q-14 33 -14 72z" />
<glyph unicode="-" horiz-adv-x="460" d="M127 543v168h219v-168h-219z" />
<glyph unicode="." horiz-adv-x="344" d="M113 129q0 39 16 72q20 43 53 43t51 -43q17 -35 17 -72t-14 -72q-20 -43 -54 -43q-35 0 -53 43q-16 33 -16 72z" />
<glyph unicode="/" horiz-adv-x="567" d="M70 -68l346 1332h90l-348 -1332h-88z" />
<glyph unicode="0" horiz-adv-x="763" d="M104 582q0 588 285 587q287 1 287 -587q0 -242 -39 -371q-66 -219 -248 -219q-285 0 -285 590zM242 580q0 -166 14 -240q33 -164 133 -164t133 164q15 76 15 242q0 170 -15 241q-31 164 -133 164q-100 0 -133 -166q-14 -76 -14 -241z" />
<glyph unicode="1" horiz-adv-x="395" d="M94 891v160q92 6 101 100h102v-1137h-123v877h-80z" />
<glyph unicode="2" horiz-adv-x="700" d="M94 14v90q0 272 187 451q20 18 86 76q35 29 94 92q35 51 35 125q0 127 -134 127q-84 0 -186 -117l-78 150q119 150 281 149q231 0 231 -336q0 -141 -92 -243q-84 -80 -168 -158q-92 -94 -92 -213h358v-193h-522z" />
<glyph unicode="3" horiz-adv-x="694" d="M92 172l107 92q41 -90 131 -90q76 0 114 59q35 51 35 129q0 195 -149 195h-45v178h45q106 0 106 137t-106 138q-76 0 -99 -80l-98 51q20 74 72.5 130t122.5 56q102 0 161 -94q51 -82 52 -190q0 -113 -90 -221q74 -20 114 -127q33 -85 33 -177q0 -147 -59 -239 q-72 -111 -211 -111q-168 0 -236 164z" />
<glyph unicode="4" horiz-adv-x="778" d="M90 291v213l346 645h154v-676h104v-182h-104v-279h-129v279h-371zM213 473h248v475z" />
<glyph unicode="5" horiz-adv-x="729" d="M90 78l70 168q94 -82 178 -82q92 0 143 69q47 63 47 158q0 78 -39 144q-47 78 -118 77q-76 0 -142 -84l-127 66q25 291 41 555h447v-184h-346l-17 -263q76 82 148 82q141 0 211 -133q55 -106 55 -262q0 -166 -66 -270q-80 -127 -235 -127q-147 0 -250 86z" />
<glyph unicode="6" horiz-adv-x="712" d="M94 451q0 266 94 462q109 227 273 242l22 -156q-109 -10 -176 -127q-41 -70 -80 -215q96 96 166 97q121 0 182 -129q50 -99 50 -234q0 -162 -56 -262q-70 -129 -219 -129q-143 0 -209 164q-47 119 -47 287zM211 379q0 -84 33 -143q39 -72 116 -72q78 0 119 72 q35 59 35 143t-31 141q-41 74 -116 74q-78 0 -121 -72q-35 -61 -35 -143z" />
<glyph unicode="7" horiz-adv-x="702" d="M84 956v193h532v-197q-137 -145 -210 -442q-61 -242 -66 -496h-137q4 266 59 496q68 293 205 446h-383z" />
<glyph unicode="8" horiz-adv-x="718" d="M100 358q0 86 35 170q39 92 105 138q-78 106 -78 219q0 100 53 184q59 98 154 98q96 0 159 -96q55 -86 56 -188q0 -113 -92 -221q72 -18 114 -127q35 -87 35 -177q0 -145 -61 -239q-72 -111 -209 -111t-209 111q-61 94 -62 239zM223 362q0 -76 37 -129q41 -59 113 -59 q76 0 114 59q35 51 35 129q0 195 -149 195q-150 0 -150 -195zM266 872q0 -137 107 -137q106 0 106 137t-106 138q-106 0 -107 -138z" />
<glyph unicode="9" horiz-adv-x="724" d="M109 760q0 162 55 262q70 127 219 127q143 0 209 -164q47 -117 47 -285q0 -264 -94 -462q-109 -227 -273 -242l-22 156q111 10 178 127q37 66 78 215q-96 -96 -166 -97q-121 0 -182 129q-49 98 -49 234zM219 772q0 -84 33 -141q41 -74 117 -74t118 74q35 59 35 141 q0 84 -33 143q-39 72 -116 72q-76 0 -119 -72q-35 -61 -35 -143z" />
<glyph unicode=":" horiz-adv-x="329" d="M88 129q0 37 16 72q18 43 52 43q33 0 51 -43q16 -35 16 -72t-14 -72q-20 -43 -53 -43t-54 43q-14 35 -14 72zM88 745q0 39 14 72q20 41 54 41q33 0 53 -41q14 -33 14 -72q0 -37 -14 -71q-20 -43 -53 -43t-54 43q-14 35 -14 71z" />
<glyph unicode=";" horiz-adv-x="337" d="M94 129q0 39 17 72q20 43 53 43t51 -43q16 -35 16 -72q0 -225 -106 -252v10q61 18 68 129l-31 -2q-35 0 -53 43q-14 33 -15 72zM94 745q0 39 15 72q20 41 55 41q33 0 53 -41q14 -33 14 -72q0 -37 -14 -71q-20 -43 -53 -43q-35 0 -53 43q-16 33 -17 71z" />
<glyph unicode="&#x3c;" horiz-adv-x="933" d="M154 631l364 416q8 10 14 10q10 0 11 -27l-2 -16l-29 -219h287v-328h-287l29 -219q2 -16 2 -15q0 -27 -11 -26q-6 0 -14 8z" />
<glyph unicode="=" horiz-adv-x="559" d="M115 358v170h336v-170h-336zM115 725v168h336v-168h-336z" />
<glyph unicode="&#x3e;" horiz-adv-x="937" d="M145 467v328h287l-29 219l-2 16q0 27 11 27q6 0 14 -10l367 -416l-367 -416q-8 -8 -14 -8q-10 0 -11 26q0 -2 2 15l29 219h-287z" />
<glyph unicode="?" horiz-adv-x="641" d="M88 1049q78 137 236 137q121 0 182 -94q53 -80 53 -207q0 -106 -18 -164q-16 -45 -66 -103q-57 -68 -74 -98q-41 -76 -47 -184h-114v14q0 207 94 326q53 68 65 90q27 47 27 106q0 121 -98 121t-176 -92zM227 129q0 37 17 72q18 43 51 43t53 -43q17 -33 17 -72t-17 -72 q-18 -43 -53 -43q-33 0 -53 43q-14 35 -15 72z" />
<glyph unicode="@" horiz-adv-x="815" d="M80 551q0 209 97 350t235 141q139 0 231 -135t92 -348q0 -211 -30 -280q-12 -29 -45 -50.5t-54 -21.5q-78 0 -100 121q-70 -55 -131 -56q-98 0 -99 168q0 170 121 170q37 0 99 -45q-18 145 -95 146q-31 0 -61 -19l-18 53q29 43 90 43q127 0 127 -170v-227q0 -102 71 -102 q82 0 86 102q6 127 6 166q0 172 -59 287q-76 147 -231 147q-143 0 -228 -155q-70 -127 -69 -285q0 -154 53 -272q68 -147 201 -170l-31 -35q-92 8 -170 133q-88 141 -88 344zM326 440q0 -84 82 -84q25 0 53 17.5t28 40.5v82q0 12 -27.5 25.5t-43.5 13.5q-92 0 -92 -95z" />
<glyph unicode="A" horiz-adv-x="845" d="M90 14l268 1135h150l268 -1135h-147l-54 242h-280l-53 -242h-152zM330 414h213l-107 487z" />
<glyph unicode="B" horiz-adv-x="776" d="M109 14v1135h315q98 0 156 -102q49 -84 49 -191q0 -115 -74 -215q147 -54 147 -283q0 -150 -57 -237q-70 -106 -209 -107h-327zM246 197h196q63 0 101 55q30 49 30 117t-30 114q-35 55 -101 56l-196 -2v-340zM246 711h162q51 0 81.5 38t30.5 89q0 53 -30.5 91t-81.5 38 h-162v-256z" />
<glyph unicode="C" horiz-adv-x="839" d="M88 582q0 227 74 379q96 200 297 200h2q207 0 305 -209l-127 -104q-60 108 -176 108h-2q-223 0 -223 -374q0 -141 43 -240q57 -135 180 -135q98 0 160 80l133 -94q-98 -193 -293 -193q-188 0 -291 207q-82 166 -82 375z" />
<glyph unicode="D" horiz-adv-x="862" d="M104 14v1135h252q205 0 322 -184q100 -158 100 -375q0 -227 -100 -387q-117 -188 -330 -189h-244zM244 203h82q154 0 233 116q72 101 72 261q0 182 -84 282q-51 59 -88 78q-43 23 -115 23h-100v-760z" />
<glyph unicode="E" horiz-adv-x="655" d="M104 14v1135h480v-168h-348v-270h213v-168h-213v-361h348v-168h-480z" />
<glyph unicode="F" horiz-adv-x="661" d="M117 14v1135h473v-168h-344v-287h221v-168h-221v-512h-129z" />
<glyph unicode="G" horiz-adv-x="870" d="M82 582q0 229 74 387q98 211 299 211t305 -228l-125 -102q-61 131 -180 131q-223 0 -224 -399q0 -375 224 -375q78 0 129 51t65 129h-174v174h324v-112q0 -182 -104.5 -315.5t-239.5 -133.5q-186 0 -289 209q-84 166 -84 373z" />
<glyph unicode="H" horiz-adv-x="841" d="M111 14v1135h139v-457h352v457h139v-1135h-139v484h-352v-484h-139z" />
<glyph unicode="I" horiz-adv-x="348" d="M119 14v1135h123v-1135h-123z" />
<glyph unicode="J" horiz-adv-x="604" d="M113 16v185q82 0 123 10q143 35 143 291v647h125v-752q0 -164 -72 -270q-80 -121 -194 -121q-23 0 -64 5t-61 5z" />
<glyph unicode="K" horiz-adv-x="839" d="M117 14v1135h139v-637l322 637h159l-262 -483l283 -652h-176l-193 488l-133 -238v-250h-139z" />
<glyph unicode="L" horiz-adv-x="690" d="M102 14v1135h131v-940h377v-195h-508z" />
<glyph unicode="M" horiz-adv-x="972" d="M119 14v1135h182l199 -627l194 627h185v-1135h-142v832l-239 -783l-248 777v-826h-131z" />
<glyph unicode="N" horiz-adv-x="866" d="M109 14v1135h188l317 -752v752h136v-1135h-144l-364 891v-891h-133z" />
<glyph unicode="O" horiz-adv-x="909" d="M100 582q0 225 70 376q92 203 291 203t293 -203q69 -149 69 -376q0 -225 -69 -379q-94 -203 -293 -203q-195 0 -289 205q-72 156 -72 377zM250 582q0 -383 213 -383q209 0 209 383t-209 383q-213 0 -213 -383z" />
<glyph unicode="P" horiz-adv-x="786" d="M117 14v1135h383q109 0 168 -125q47 -96 47 -219q0 -125 -47 -230q-59 -135 -168 -135h-246v-426h-137zM254 629h199q61 0 96 57q29 47 29 113q0 63 -29 110q-35 53 -96 54h-199v-334z" />
<glyph unicode="Q" horiz-adv-x="907" d="M104 582q0 229 68 376q92 203 293 203q199 0 291 -203q69 -151 69 -376q0 -285 -106 -445l49 -86l-94 -119l-56 109q-90 -45 -157 -45q-186 0 -283 211q-74 162 -74 375zM254 582q0 -385 205 -385q23 0 71 10l-96 182l101 103l98 -187q43 136 43 277q0 383 -211 383 t-211 -383z" />
<glyph unicode="R" horiz-adv-x="790" d="M113 14v1135h381q109 0 168 -123q47 -98 47 -221q0 -115 -38 -208t-110 -140l139 -443h-153l-133 426h-166v-426h-135zM248 629h198q61 0 97 57q30 47 30 113t-30 110q-35 53 -97 54h-198v-334z" />
<glyph unicode="S" horiz-adv-x="731" d="M111 92l49 166q94 -72 215 -72q160 0 160 170q0 117 -111 170q-100 47 -203 97q-110 77 -110 251q0 132 82.5 211.5t212.5 79.5q131 0 219 -84l-39 -166q-84 68 -211 68q-123 0 -123 -121q0 -80 106 -129q170 -82 197 -104q107 -86 107 -256q0 -156 -62 -254 q-74 -119 -221 -119q-141 0 -268 92z" />
<glyph unicode="T" horiz-adv-x="796" d="M100 954v195h619v-195h-242v-940h-137v940h-240z" />
<glyph unicode="U" horiz-adv-x="835" d="M102 461v688h140v-653q0 -276 172 -277q174 0 174 277v653h139v-686q0 -186 -63 -303q-80 -150 -250 -150t-250 150q-61 115 -62 301z" />
<glyph unicode="V" horiz-adv-x="843" d="M74 1149h159l201 -868l201 868h153l-268 -1135h-178z" />
<glyph unicode="W" horiz-adv-x="1208" d="M82 1149h151l146 -823l158 823h143l160 -823l143 823h145l-204 -1135h-183l-137 824l-135 -824h-182z" />
<glyph unicode="X" horiz-adv-x="868" d="M92 14l258 572l-254 563h164l180 -416l185 416h153l-254 -551l260 -584h-166l-184 439l-188 -439h-154z" />
<glyph unicode="Y" horiz-adv-x="847" d="M96 1149h154l194 -518l191 518h145l-270 -696v-439h-139v424z" />
<glyph unicode="Z" horiz-adv-x="763" d="M98 14v185l385 733h-366v217h542v-188l-383 -730h404v-217h-582z" />
<glyph unicode="[" horiz-adv-x="448" d="M117 -264v1460h241v-125h-163v-1210h163v-125h-241z" />
<glyph unicode="\" horiz-adv-x="622" d="M76 1196h92l377 -1413h-88z" />
<glyph unicode="]" horiz-adv-x="475" d="M117 -139h164v1210h-164v125h241v-1460h-241v125z" />
<glyph unicode="^" horiz-adv-x="731" d="M90 705q0 20 8 36l264 535l267 -535q8 -16 8 -36q0 -25 -10 -25l-162 49v-436h-203v436q-61 -20 -162 -49q-10 2 -10 25z" />
<glyph unicode="_" horiz-adv-x="958" d="M113 -12h718v-224h-718v224z" />
<glyph unicode="`" horiz-adv-x="591" d="M256 1335h78l86 -352h-35z" />
<glyph unicode="a" horiz-adv-x="694" d="M96 305q0 129 51 211q59 98 183 98q68 0 153 -71q-4 227 -145 227q-66 0 -119 -45l-41 113q66 86 180 86q123 0 187 -95q57 -84 57 -211v-600h-121v80q-109 -86 -190 -86q-195 0 -195 293zM219 311q0 -127 131 -127q29 0 80 29.5t51 54.5v111q0 37 -37.5 59.5t-76.5 22.5 q-147 0 -148 -150z" />
<glyph unicode="b" horiz-adv-x="720" d="M102 16v1086l121 65v-360q102 92 170 92q137 0 201 -182q43 -123 43 -295q0 -156 -49 -264q-68 -143 -205 -144q-88 0 -160 162v-160h-121zM223 352q0 -12 49 -94q39 -68 88 -68q86 0 132 82q34 66 34 158q0 283 -166 283q-47 0 -88 -47q-49 -57 -49 -99v-215z" />
<glyph unicode="c" horiz-adv-x="663" d="M94 451q0 160 64 288q80 164 221 164q111 0 188 -104l-96 -109q-39 37 -92 37q-86 0 -127 -102q-31 -74 -31 -176q0 -276 160 -277q61 0 100 47l107 -96q-78 -125 -209 -125q-152 0 -227 160q-57 121 -58 293z" />
<glyph unicode="d" horiz-adv-x="727" d="M86 422q0 195 75 334t183 139q68 0 166 -88v295l123 65v-1151h-123v160q-70 -162 -162 -162q-135 0 -207 144q-55 113 -55 264zM209 422q0 -96 35 -160q43 -80 131 -80q49 0 92 66.5t43 95.5v215q0 33 -47 98q-35 47 -88 48q-166 0 -166 -283z" />
<glyph unicode="e" horiz-adv-x="704" d="M86 444q0 182 55 304q74 165 232 165h2q129 0 205 -174q55 -127 57 -381h-426q0 -57 32.5 -112.5t84.5 -69.5q16 -4 45 -4q63 0 106 55l88 -100q-74 -129 -196 -129q-150 0 -226 158q-59 121 -59 288zM211 512h303q0 86 -31 152q-41 84 -116 84q-78 0 -121 -84 q-35 -66 -35 -152z" />
<glyph unicode="f" horiz-adv-x="528" d="M100 743v134h74q0 323 183 323h1q27 0 58 -6v-154q-78 0 -109 -45q-25 -35 -26 -118h135v-134h-129v-729h-113v729h-74z" />
<glyph unicode="g" horiz-adv-x="718" d="M96 473q0 145 58 264q72 147 200 148q66 0 154 -74v74h123v-697q0 -186 -47 -327q-66 -205 -209 -221l-19 182q90 27 123 110q25 59 25 172q-49 -49 -66 -61q-37 -25 -86 -25q-127 0 -186 99q-70 117 -70 356zM223 467q0 -268 146 -268q51 0 95 45t44 96v215q0 49 -35 98 t-80 49q-88 0 -133 -77q-37 -63 -37 -158z" />
<glyph unicode="h" horiz-adv-x="708" d="M111 14v1065l120 97v-463q72 159 180 159h1q104 0 161 -104q47 -86 48 -201v-553h-121v523q0 59 -37 113.5t-94 54.5q-55 0 -96.5 -55.5t-41.5 -112.5v-523h-120z" />
<glyph unicode="i" horiz-adv-x="321" d="M98 1092q0 37 15 71q20 43 53 43q35 0 53 -43q17 -32 17 -71t-17 -72q-18 -41 -53 -41q-33 0 -51 43q-16 33 -17 70zM104 14v871h121v-871h-121z" />
<glyph unicode="j" horiz-adv-x="413" d="M29 -195q61 25 92 125q22 71 22 155v7v793h119v-889q0 -102 -43 -205q-55 -125 -139 -139zM137 1092q0 37 15 71q20 43 53 43t53 -43q16 -34 16 -71t-16 -72q-20 -41 -53 -41t-51 43q-16 33 -17 70z" />
<glyph unicode="k" horiz-adv-x="696" d="M98 14v1071l123 91v-629l203 303h178l-194 -295l217 -541h-146l-174 428l-84 -127v-301h-123z" />
<glyph unicode="l" horiz-adv-x="358" d="M123 14v1065l123 97v-1162h-123z" />
<glyph unicode="m" horiz-adv-x="1097" d="M106 14v871h121v-121q96 135 189 135q86 0 153 -96q96 90 199 90q119 0 182 -96q53 -82 54 -207v-576h-123v496q0 74 -25 127q-33 70 -98 70q-98 0 -133 -127q-8 -31 -9 -45v-521h-122v496q0 197 -125 197q-66 0 -107 -68q-35 -57 -35 -129v-496h-121z" />
<glyph unicode="n" horiz-adv-x="706" d="M115 14v871h121v-121q96 135 188 135q104 0 158 -108q41 -84 41 -201v-576h-121v496q0 197 -125 197q-68 0 -107 -68q-35 -57 -34 -129v-496h-121z" />
<glyph unicode="o" horiz-adv-x="712" d="M78 451q0 162 61 290q78 162 223 162t224 -162q61 -128 61 -290q0 -168 -59 -293q-76 -160 -226 -160q-152 0 -227 160q-57 121 -57 293zM365 176q151 1 151 273q0 276 -154 276q-153 0 -153 -272q0 -276 156 -277z" />
<glyph unicode="p" horiz-adv-x="720" d="M102 -346v1249h123v-158q70 156 152 156q135 0 205 -151q55 -117 55 -271q0 -160 -47 -286q-66 -176 -197 -177q-66 0 -168 74v-336zM225 342q0 -39 42 -85t81 -46q96 0 141 86q37 70 37 174q0 240 -166 240q-45 0 -90 -53.5t-45 -100.5v-215z" />
<glyph unicode="q" horiz-adv-x="745" d="M102 479q0 150 54 262q68 147 200 148q88 0 160 -162v158h121v-1161l-121 -78v444q-102 -74 -168 -74q-131 0 -196 177q-49 127 -50 286zM215 471q0 -104 37 -174q45 -86 141 -86q43 0 83 44t40 87v215q0 49 -45 101.5t-92 52.5q-164 0 -164 -240z" />
<glyph unicode="r" horiz-adv-x="489" d="M113 14v873h108v-125q84 145 152 145q36 0 63 -20l-47 -201q-29 16 -47 16q-59 0 -92 -59q-29 -51 -29 -115v-514h-108z" />
<glyph unicode="s" horiz-adv-x="608" d="M84 76l45 151q84 -55 172 -55q115 0 115 102q0 53 -86 88q-127 49 -160 76q-86 70 -86 209q0 121 66.5 198t185.5 77q109 0 182 -68l-39 -168q-90 63 -170 64q-88 0 -88 -93q0 -53 84 -88q123 -49 156 -75q84 -70 84 -213q0 -279 -260 -279q-76 0 -201 74z" />
<glyph unicode="t" horiz-adv-x="489" d="M78 725v164h72v160l108 84v-244h141v-164h-141v-352q0 -219 102 -219q27 0 56 12l-21 -152q-53 -14 -94 -14q-152 0 -151 270v455h-72z" />
<glyph unicode="u" horiz-adv-x="704" d="M96 311v578h123v-496q0 -196 124 -196h1q68 0 109 67q33 55 32 129v496h121v-871h-121v121q-96 -135 -188 -135q-106 0 -160 107q-41 84 -41 200z" />
<glyph unicode="v" horiz-adv-x="684" d="M76 889h127l145 -613l144 613h126l-204 -875h-140z" />
<glyph unicode="w" horiz-adv-x="1079" d="M78 889h127l145 -565l144 565h112l146 -565l141 565h129l-207 -875h-137l-129 568l-133 -568h-140z" />
<glyph unicode="x" horiz-adv-x="722" d="M68 14l198 443l-188 432h149l123 -291l121 291h150l-189 -432l191 -443h-142l-131 295l-133 -295h-149z" />
<glyph unicode="y" horiz-adv-x="755" d="M90 889h139l166 -635l174 635h121l-321 -1243h-140l93 356z" />
<glyph unicode="z" horiz-adv-x="729" d="M135 14v152l279 541h-267v182h451v-150l-274 -538h278v-187h-467z" />
<glyph unicode="{" horiz-adv-x="657" d="M80 399v133q150 8 188 138q14 51 15 256q0 270 184 270h106v-113q-127 0 -161 -67q-25 -47 -25 -242q0 -176 -154 -282v-52q154 -106 154 -282q0 -195 25 -242q35 -68 161 -68v-112h-106q-184 0 -184 270q0 201 -17 256q-37 129 -186 137z" />
<glyph unicode="|" horiz-adv-x="258" d="M119 -264v1460h22v-1460h-22z" />
<glyph unicode="}" horiz-adv-x="661" d="M78 -152q127 0 164 68q27 49 26 242q0 176 154 280v54q-154 106 -154 282q0 190 -26 242q-35 68 -162 67v113h106q186 0 187 -270q0 -201 16 -256q39 -129 189 -138v-133q-152 -2 -191 -133q-14 -53 -14 -260q0 -270 -187 -270h-108v112z" />
<glyph unicode="~" horiz-adv-x="944" d="M102 381q43 350 211 350q74 0 170.5 -95t122.5 -95q94 0 127 180l96 -51q-6 -135 -69 -228q-74 -106 -148 -106q-49 0 -145 107.5t-148 107.5q-63 0 -88 -86q-6 -16 -20 -137z" />
<glyph unicode="&#xa1;" horiz-adv-x="346" d="M100 1038q0 39 17 72q18 43 53 43q33 0 53 -43q15 -35 15 -72t-15 -71q-20 -43 -53 -43q-35 0 -53 43q-16 33 -17 71zM123 18v484l12 305h68l14 -305v-484h-94z" />
<glyph unicode="&#xa2;" d="M135 846q0 23 27 22q14 0 235 -45v434h328v-434l219 45q43 9 43 -22q0 -16 -14 -35l-412 -549l-414 549q-12 16 -12 35z" />
<glyph unicode="&#xa3;" d="M154 670l307 307l-189 125q-20 14 -20 26q0 27 41 33l680 96l-96 -679q-6 -41 -33 -41q-12 0 -27 20l-125 188l-307 -307z" />
<glyph unicode="&#xa4;" d="M164 1257l680 -96q41 -6 41 -33q0 -12 -21 -26l-188 -125l307 -307l-231 -232l-308 307l-125 -188q-14 -20 -26 -20q-27 0 -33 41z" />
<glyph unicode="&#xa5;" d="M154 987l231 232l307 -308l125 189q14 20 27 20q27 0 33 -41l96 -680l-680 97q-41 6 -41 32q0 12 20 27l189 125z" />
<glyph unicode="&#xa6;" d="M164 350l96 682q6 41 31 41q14 0 28 -22l125 -187l308 307l231 -231l-307 -307l188 -125q20 -14 21 -27q0 -27 -41 -32z" />
<glyph unicode="&#xa7;" d="M135 705q0 18 12 34l414 549l412 -549q14 -18 14 -34q0 -25 -29 -25q-4 0 -14 2l-219 45v-434h-328v434l-221 -45q-10 -2 -14 -2q-27 0 -27 25z" />
<glyph unicode="&#xa8;" horiz-adv-x="774" d="M197 1120q0 39 16 72q20 43 53 43t51 -43q17 -35 17 -72t-15 -71q-20 -43 -53 -43q-35 0 -53 43q-16 33 -16 71zM459 1120q0 37 16 72q18 43 51 43t54 -43q16 -33 16 -72t-16 -71q-18 -43 -54 -43q-33 0 -53 43q-14 35 -14 71z" />
<glyph unicode="&#xa9;" horiz-adv-x="1435" d="M236 631l548 413q16 12 35 13q25 0 25 -27q0 -4 -2 -14l-45 -221h434v-328h-434l45 -219q2 -10 2 -15q0 -27 -25 -26q-18 0 -35 12z" />
<glyph unicode="&#xaa;" horiz-adv-x="1441" d="M221 467v328h434q-45 221 -45 235q0 27 23 27q18 0 35 -13l549 -413l-549 -412q-16 -12 -35 -12q-31 0 -23 41l45 219h-434z" />
<glyph unicode="&#xad;" horiz-adv-x="460" d="M127 543v168h219v-168h-219z" />
<glyph unicode="&#xaf;" horiz-adv-x="550" d="M119 973v223h319v-223h-319z" />
<glyph unicode="&#xb0;" horiz-adv-x="563" d="M109 836q0 109 36 204q47 131 136 131q88 0 135 -131q37 -95 37 -204q0 -106 -37 -205q-47 -129 -135 -129t-136 129q-37 98 -36 205zM154 836q0 -72 26 -131q37 -76 101 -76q63 0 100 76q27 59 27 131q0 74 -27 133q-35 76 -100 75q-66 0 -101 -75q-27 -59 -26 -133z " />
<glyph unicode="&#xbf;" horiz-adv-x="645" d="M86 322q0 125 29 184q8 18 100 135q66 84 76 231h115v-16q0 -166 -39 -231q-47 -70 -97 -138q-53 -82 -53 -153q0 -121 100 -121q98 0 177 92l63 -147q-80 -137 -238 -138q-119 0 -180 97q-53 80 -53 205zM281 1079q0 37 16 72q18 43 51 43t53 -43q17 -33 17 -72t-17 -71 q-18 -43 -53 -43q-33 0 -53 43q-14 35 -14 71z" />
<glyph unicode="&#xc0;" horiz-adv-x="841" d="M82 14l268 1135h148l268 -1135h-145l-54 242h-280l-54 -242h-151zM283 1602h77l86 -353h-34zM319 414h213l-106 487z" />
<glyph unicode="&#xc1;" horiz-adv-x="849" d="M82 14l268 1135h148l268 -1135h-145l-54 242h-280l-54 -242h-151zM319 414h213l-106 487zM344 1253l86 353h78l-129 -353h-35z" />
<glyph unicode="&#xc2;" horiz-adv-x="854" d="M84 14l268 1135h148l268 -1135h-145l-54 242h-280l-53 -242h-152zM276 1241l123 354h76l125 -354h-53l-111 301l-108 -301h-52zM322 414h215l-109 487z" />
<glyph unicode="&#xc3;" horiz-adv-x="856" d="M80 14l268 1135h150l268 -1135h-148l-51 242h-280l-56 -242h-151zM231 1335q37 113 105 113q16 0 68.5 -25.5t82.5 -25.5q57 0 80 55l35 -43q-6 -29 -10 -39q-8 -20 -27 -31q-47 -27 -67 -26q-25 0 -74 25.5t-70 25.5q-39 0 -84 -68zM319 414h213l-106 487z" />
<glyph unicode="&#xc4;" horiz-adv-x="866" d="M63 14l269 1135h149l269 -1135h-148l-53 242h-281l-53 -242h-152zM190 1386q0 39 15 72q20 41 53 41q35 0 55 -41q15 -33 15 -72t-17 -71q-18 -43 -53 -43q-33 0 -53 43q-14 35 -15 71zM303 414h213l-106 487zM453 1386q0 39 14 72q20 41 53 41t53 -41q15 -33 15 -72 q0 -37 -15 -71q-20 -43 -53 -43t-53 43q-14 35 -14 71z" />
<glyph unicode="&#xc5;" horiz-adv-x="917" d="M82 14l266 1086q-51 88 -51 157q0 78 35 136q41 70 114 69q74 0 115 -69q35 -57 35 -136q0 -70 -53 -157l268 -1086h-170l-41 236h-313l-41 -236h-164zM322 401h243l-121 506zM346 1264q0 -55 23 -97q27 -49 77 -49q51 0 78 49q23 42 23 97q0 53 -23 94q-29 49 -78 49 t-77 -49q-23 -41 -23 -94z" />
<glyph unicode="&#xc6;" horiz-adv-x="1216" d="M66 14l311 1135h753v-205h-372v-233h346v-205h-346v-287h372v-205h-520v326h-291l-86 -326h-167zM375 541h235v415h-114z" />
<glyph unicode="&#xc7;" horiz-adv-x="833" d="M76 582q0 227 74 379q96 201 299 200q207 0 305 -209l-127 -104q-61 109 -178 108q-223 0 -224 -374q0 -143 41 -242q59 -133 183 -133q98 0 159 80l133 -94q-76 -147 -221 -185q0 -133 -24 -198q-41 -104 -152 -105q-41 0 -86 14l43 99q25 -6 45 -6q119 0 117 188 q-166 4 -276.5 166t-110.5 416z" />
<glyph unicode="&#xc8;" horiz-adv-x="659" d="M90 14v1135h479v-168h-348v-270h213v-168h-213v-361h348v-168h-479zM246 1602h78l86 -353h-35z" />
<glyph unicode="&#xc9;" horiz-adv-x="673" d="M102 14v1135h480v-168h-351v-270h215v-168h-215v-361h351v-168h-480zM276 1253l86 353h78l-129 -353h-35z" />
<glyph unicode="&#xca;" horiz-adv-x="667" d="M94 14v1135h479v-168h-350v-270h215v-168h-215v-361h350v-168h-479zM158 1249l125 353h75l125 -353h-55l-109 299l-108 -299h-53z" />
<glyph unicode="&#xcb;" horiz-adv-x="669" d="M94 14v1135h481v-168h-350v-270h213v-168h-213v-361h350v-168h-481zM143 1386q0 39 15 72q20 41 53 41q35 0 55 -41q15 -33 15 -72t-17 -71q-18 -43 -53 -43q-33 0 -53 43q-14 35 -15 71zM406 1386q0 39 14 72q20 41 53 41t53 -41q15 -33 15 -72q0 -37 -15 -71 q-20 -43 -53 -43t-53 43q-14 35 -14 71z" />
<glyph unicode="&#xcc;" horiz-adv-x="364" d="M90 1602h78l86 -353h-35zM117 14v1135h123v-1135h-123z" />
<glyph unicode="&#xcd;" horiz-adv-x="348" d="M100 1253l86 353h78l-129 -353h-35zM113 14v1135h123v-1135h-123z" />
<glyph unicode="&#xce;" horiz-adv-x="446" d="M72 1249l125 353h75l123 -353h-53l-111 299l-106 -299h-53zM164 14v1135h123v-1135h-123z" />
<glyph unicode="&#xcf;" horiz-adv-x="434" d="M12 1386q0 39 15 72q20 41 55 41q33 0 53 -41q15 -33 15 -72q0 -37 -15 -71q-20 -43 -53 -43q-35 0 -53 43q-16 33 -17 71zM150 14v1135h122v-1135h-122zM274 1386q0 39 15 72q20 41 53 41q35 0 55 -41q15 -33 15 -72t-17 -71q-18 -43 -53 -43q-33 0 -53 43 q-14 35 -15 71z" />
<glyph unicode="&#xd0;" horiz-adv-x="927" d="M78 487v197h84v465h254q229 0 338 -180q90 -145 90 -389q0 -240 -94 -387q-113 -178 -340 -179h-248v473h-84zM305 229h80q307 1 307 355q0 221 -86 295q-63 55 -221 55h-80v-250h166v-197h-166v-258z" />
<glyph unicode="&#xd1;" horiz-adv-x="866" d="M102 14v1135h189l319 -752v752h133v-1135h-141l-364 891v-891h-136zM244 1335q39 113 104 113q18 0 70.5 -25.5t83.5 -25.5q55 0 78 55l36 -43q-12 -53 -38 -70q-45 -27 -68 -26q-23 0 -72 25.5t-69 25.5q-41 0 -86 -68z" />
<glyph unicode="&#xd2;" horiz-adv-x="876" d="M84 582q0 227 70 376q94 203 292 203q199 0 291 -203q70 -151 70 -376t-70 -377q-92 -203 -291 -203q-197 0 -290 205q-72 154 -72 375zM236 582q0 -383 210 -383q211 0 211 383t-211 383t-210 -383zM324 1602h77l86 -353h-34z" />
<glyph unicode="&#xd3;" horiz-adv-x="886" d="M82 582q0 229 68 376q92 203 292 203q199 0 291 -203q70 -151 70 -376t-70 -377q-92 -203 -291 -203q-197 0 -290 203q-70 154 -70 377zM231 582q0 -383 211 -383t211 383t-211 383t-211 -383zM385 1253l86 353h78l-129 -353h-35z" />
<glyph unicode="&#xd4;" horiz-adv-x="890" d="M88 582q0 229 68 376q92 203 293 203q199 0 290 -203q70 -151 70 -376q0 -229 -68 -377q-92 -203 -292 -203q-195 0 -289 205q-72 154 -72 375zM238 582q0 -383 211 -383q210 0 210 383t-210 383q-211 0 -211 -383zM287 1249l123 353h75l125 -353h-53l-111 299l-108 -299 h-51z" />
<glyph unicode="&#xd5;" horiz-adv-x="894" d="M90 582q0 229 68 376q92 203 293 203q199 0 290 -203q70 -151 70 -376t-70 -377q-92 -203 -290 -203q-197 0 -291 203q-70 154 -70 377zM240 582q0 -383 211 -383t211 383t-211 383t-211 -383zM268 1335q39 113 107 113q16 0 68.5 -25.5t82.5 -25.5q57 0 80 55l35 -43 q-6 -29 -10 -39q-8 -20 -27 -31q-47 -27 -67 -26q-25 0 -74 25.5t-70 25.5q-39 0 -84 -68z" />
<glyph unicode="&#xd6;" horiz-adv-x="897" d="M90 582q0 227 70 376q94 203 293 203t290 -203q70 -151 70 -376t-70 -377q-92 -203 -290 -203q-197 0 -291 205q-72 154 -72 375zM242 582q0 -383 211 -383t211 383t-211 383t-211 -383zM244 1386q0 39 14 72q20 41 53 41q35 0 56 -41q14 -33 14 -72t-16 -71 q-18 -43 -54 -43q-33 0 -53 43q-14 35 -14 71zM506 1386q0 39 14 72q20 41 53 41t54 -41q14 -33 14 -72q0 -37 -14 -71q-20 -43 -54 -43q-33 0 -53 43q-14 35 -14 71z" />
<glyph unicode="&#xd7;" horiz-adv-x="768" d="M102 164l224 358l-224 361l60 94l223 -359l221 359l60 -94l-222 -361l222 -358l-60 -96l-221 360l-223 -360z" />
<glyph unicode="&#xd8;" horiz-adv-x="915" d="M104 582q0 225 70 376q94 203 293 203q74 0 156 -41l26 76h90l-45 -137q133 -164 133 -477q0 -225 -69 -377q-92 -205 -291 -205q-51 0 -117 23l-6 -21h-90l22 68q-172 158 -172 512zM256 582q0 -199 80 -334l227 690q-51 27 -96 27q-211 0 -211 -383zM412 205 q39 -6 55 -6q211 0 211 383q0 141 -47 288z" />
<glyph unicode="&#xd9;" horiz-adv-x="837" d="M98 461v688h140v-653q0 -276 172 -277q172 0 172 277v653h139v-686q0 -188 -62 -303q-80 -150 -249 -150q-170 0 -250 150q-61 115 -62 301zM305 1602h78l86 -353h-35z" />
<glyph unicode="&#xda;" horiz-adv-x="903" d="M129 461v688h139v-653q0 -276 174 -277q172 0 172 277v653h140v-686q0 -188 -62 -303q-80 -150 -250 -150t-249 150q-63 117 -64 301zM383 1253l86 353h78l-129 -353h-35z" />
<glyph unicode="&#xdb;" horiz-adv-x="843" d="M100 461v688h140v-653q0 -276 172 -277q172 0 172 277v653h141v-686q0 -186 -63 -303q-80 -150 -250 -150t-250 150q-61 115 -62 301zM258 1249l125 353h76l125 -353h-56l-108 299l-109 -299h-53z" />
<glyph unicode="&#xdc;" horiz-adv-x="821" d="M104 461v688h140v-653q0 -276 172 -277q172 0 172 277v653h139v-686q0 -188 -61 -303q-80 -150 -250 -150t-250 150q-61 115 -62 301zM215 1386q0 39 14 72q20 41 56 41q33 0 53 -41q14 -33 14 -72q0 -37 -14 -71q-20 -43 -53 -43q-35 0 -54 43q-16 33 -16 71zM477 1386 q0 39 15 72q20 41 53 41q35 0 55 -41q14 -33 14 -72t-16 -71q-18 -43 -53 -43q-33 0 -53 43q-14 35 -15 71z" />
<glyph unicode="&#xdd;" horiz-adv-x="907" d="M106 1149h154l195 -518l190 518h146l-271 -696v-439h-139v424zM367 1253l86 353h77l-129 -353h-34z" />
<glyph unicode="&#xde;" horiz-adv-x="720" d="M90 14v1135h137v-180h150q282 0 282 -348q0 -158 -63 -265q-76 -131 -223 -131h-146v-211h-137zM227 422h78q117 0 160 37q51 40 51 155q0 96 -70 134q-49 25 -153 24h-66v-350z" />
<glyph unicode="&#xdf;" horiz-adv-x="774" d="M104 16v811q0 156 52 252q66 125 206 125q119 0 195 -90q70 -84 70 -205q0 -158 -164 -245q225 -95 225 -304q0 -98 -45 -184q-49 -96 -131 -137q-63 -33 -164 -29v160h58q74 0 114 68q37 59 37 137q0 166 -186 194v158q121 41 121 168q0 125 -134 125q-131 0 -131 -168 v-836h-123z" />
<glyph unicode="&#xe0;" horiz-adv-x="694" d="M96 305q0 309 234 309q66 0 151 -71q-2 227 -145 227q-66 0 -117 -45l-43 113q66 86 180 86q125 0 189 -95q55 -80 55 -211v-600h-119v80q-111 -86 -190 -86q-195 0 -195 293zM219 311q0 -127 131 -127q29 0 79 29.5t50 54.5v111q0 37 -36.5 59.5t-75.5 22.5 q-147 0 -148 -150zM246 1335h78l86 -352h-35z" />
<glyph unicode="&#xe1;" horiz-adv-x="688" d="M90 305q0 309 234 309q66 0 151 -71q-2 227 -145 227q-66 0 -119 -45l-41 113q66 86 180 86q123 0 187 -95q57 -84 57 -211v-600h-121v80q-109 -86 -190 -86q-193 0 -193 293zM211 311q0 -127 131 -127q29 0 80 28.5t51 55.5v111q0 37 -38 59.5t-77 22.5 q-147 0 -147 -150zM328 983l86 352h78l-130 -352h-34z" />
<glyph unicode="&#xe2;" horiz-adv-x="716" d="M106 305q0 309 234 309q68 0 152 -71q-2 227 -144 227q-66 0 -119 -45l-41 113q63 86 181 86q123 0 186 -95q55 -82 55 -211v-600h-118v80q-109 -86 -191 -86q-195 0 -195 293zM227 983l125 352h76l123 -352h-53l-109 299l-108 -299h-54zM229 311q0 -127 131 -127 q29 0 79 29.5t50 54.5v111q0 37 -36.5 59.5t-75.5 22.5q-147 0 -148 -150z" />
<glyph unicode="&#xe3;" horiz-adv-x="741" d="M113 305q0 309 233 309q66 0 152 -71q-2 227 -144 227q-68 0 -118 -45l-41 113q63 86 180 86q123 0 186 -95q55 -82 55 -211v-600h-118v80q-111 -86 -191 -86q-195 0 -194 293zM207 1069q39 113 104 113q23 0 75 -26t79 -26q57 0 78 56l37 -41q-6 -31 -11 -39 q-8 -18 -26 -31q-49 -29 -68 -28q-25 0 -74 25.5t-69 25.5q-25 0 -51.5 -21.5t-32.5 -46.5zM236 311q0 -127 131 -127q29 0 79 29.5t50 54.5v111q0 37 -37 59.5t-76 22.5q-147 0 -147 -150z" />
<glyph unicode="&#xe4;" horiz-adv-x="720" d="M104 305q0 309 234 309q66 0 151 -71q-2 227 -143 227q-68 0 -119 -45l-41 113q63 86 181 86q123 0 186 -95q55 -82 55 -211v-600h-119v80q-111 -86 -190 -86q-195 0 -195 293zM160 1120q0 39 14 72q20 41 53 41t51.5 -38t18.5 -75t-16 -71q-20 -43 -54 -43q-33 0 -53 43 q-14 35 -14 71zM227 311q0 -127 131 -127q29 0 79 29.5t50 54.5v111q0 37 -36.5 59.5t-75.5 22.5q-147 0 -148 -150zM420 1120q0 37 18.5 75t50.5 38q33 0 54 -41q14 -33 14 -72q0 -37 -14 -71q-20 -43 -54 -43q-33 0 -53 43q-16 35 -16 71z" />
<glyph unicode="&#xe5;" horiz-adv-x="712" d="M94 311q0 131 51 211q61 96 185 96q74 0 157 -59q-29 205 -151 205q-61 0 -117 -45l-43 137q29 45 117 76q-59 86 -60 176q0 72 29 131q37 76 100 76q66 0 103 -74q29 -59 29 -133q0 -123 -62 -186q168 -86 168 -304v-600h-119v80q-111 -86 -190 -86q-109 0 -158 103 q-39 78 -39 196zM219 311q0 -127 131 -127q37 0 84 25.5t47 58.5v140q0 18 -49 36q-41 16 -65 17q-147 0 -148 -150zM264 1108q0 -53 23 -96q27 -51 75 -51q51 0 78 51q23 41 23 96t-23 96q-29 51 -78 51t-75 -51q-23 -41 -23 -96z" />
<glyph unicode="&#xe6;" horiz-adv-x="1144" d="M96 311q0 131 51 211q61 96 185 96q74 0 157 -59q-29 205 -151 205q-61 0 -115 -45l-45 137q51 80 170 80q129 0 215 -131q90 109 205 108q129 0 205 -174q55 -129 55 -381h-424v-6q-2 -72 44 -126t116 -54q74 0 113 43l90 -100q-70 -117 -213 -117q-66 0 -123 49 q-31 29 -88 105l-84 -101q-6 -4 -19 -12q-66 -41 -129 -41q-113 0 -170 106q-45 84 -45 207zM221 311q0 -127 131 -127q39 0 85 24.5t46 59.5v84q0 12 -2 36t-2 36q-37 37 -110 37q-147 0 -148 -150zM602 512h305q0 86 -33 152q-39 84 -116 84q-76 0 -121 -84 q-35 -68 -35 -152z" />
<glyph unicode="&#xe7;" horiz-adv-x="657" d="M86 451q0 199 81 325.5t202 126.5q111 0 188 -104l-96 -109q-37 35 -92 35q-154 0 -154 -276q0 -272 156 -273q63 0 100 43l107 -96q-55 -88 -154 -119q2 -33 2 -49q0 -238 -174 -238q-25 0 -49 4l24 97q10 -2 23 -2q123 0 123 182q-156 10 -230 162q-57 117 -57 291z " />
<glyph unicode="&#xe8;" horiz-adv-x="757" d="M113 444q0 180 55 304q76 166 233 165q154 0 220 -215q41 -137 43 -340h-426q0 -76 44 -131t117 -55q63 0 107 55l88 -100q-74 -129 -195 -129q-152 0 -227 156q-59 123 -59 290zM238 512h303q0 86 -31 152q-41 84 -117 84t-121 -84q-35 -68 -34 -152zM264 1335h78 l88 -352h-35z" />
<glyph unicode="&#xe9;" horiz-adv-x="749" d="M104 444q0 182 56 304q74 166 233 165q129 0 205 -174q55 -127 57 -381h-426q0 -57 33 -112.5t84 -69.5q16 -4 43 -4q63 0 107 55l90 -100q-74 -129 -197 -129q-150 0 -225 158q-59 121 -60 288zM229 512h303q0 86 -30 152q-41 84 -117 84q-78 0 -121 -84 q-35 -66 -35 -152zM299 983l86 352h78l-129 -352h-35z" />
<glyph unicode="&#xea;" horiz-adv-x="747" d="M94 444q0 182 56 304q74 166 233 165q129 0 205 -174q55 -127 57 -381h-426q0 -57 33 -112.5t84 -69.5q16 -4 45 -4q61 0 106 55l88 -100q-74 -129 -196 -129q-150 0 -225 158q-59 121 -60 288zM203 983l125 352h75l125 -352h-55l-108 299l-109 -299h-53zM219 512h303 q0 86 -30 152q-41 84 -117 84q-78 0 -121 -84q-35 -66 -35 -152z" />
<glyph unicode="&#xeb;" horiz-adv-x="749" d="M86 444q0 184 53 306q74 164 236 163q129 0 205 -174q55 -127 55 -381h-424v-6q-2 -74 43 -127t117 -53q63 0 106 55l88 -100q-72 -129 -194 -129q-152 0 -228 156q-57 121 -57 290zM172 1120q0 39 14 72q20 41 54 41q35 0 55 -41q14 -33 14 -72t-16 -71q-18 -43 -53 -43 q-33 0 -54 43q-14 35 -14 71zM209 512h305q0 86 -33 152q-39 84 -116 84q-76 0 -121 -84q-35 -68 -35 -152zM434 1120q0 39 15 72q20 41 53 41t53 -41q14 -33 14 -72q0 -37 -14 -71q-20 -43 -53 -43t-53 43q-14 35 -15 71z" />
<glyph unicode="&#xec;" horiz-adv-x="344" d="M68 1335h77l86 -352h-34zM104 14v834h121v-834h-121z" />
<glyph unicode="&#xed;" horiz-adv-x="344" d="M100 14v834h123v-834h-123zM121 983l88 352h78l-131 -352h-35z" />
<glyph unicode="&#xee;" horiz-adv-x="331" d="M61 1032l86 250h66l86 -250h-39l-82 244l-80 -244h-37zM131 14v830h96v-830h-96z" />
<glyph unicode="&#xef;" horiz-adv-x="317" d="M-12 1120q0 37 18.5 75t50.5 38q33 0 54 -41q14 -33 14 -72q0 -37 -14 -71q-20 -43 -54 -43q-33 0 -53 43q-16 35 -16 71zM135 14v836h105v-836h-105zM250 1120q0 39 14 72q20 41 55 41q33 0 54 -41q14 -33 14 -72q0 -37 -14 -71q-20 -43 -54 -43q-35 0 -53 43 q-16 33 -16 71z" />
<glyph unicode="&#xf0;" horiz-adv-x="798" d="M111 397q0 143 53 248q68 131 198 131q41 0 185 -86q-70 209 -135 316l-162 -101l-23 78l142 84q-53 59 -119 127h153q20 -18 64 -68l104 66l21 -76l-80 -51q158 -285 158 -553q0 -199 -49 -330q-70 -193 -234 -192q-150 0 -221 137q-55 106 -55 270zM242 403 q0 -276 151 -276q148 0 148 297q0 43 -4 98q-76 82 -164 82q-131 0 -131 -201z" />
<glyph unicode="&#xf1;" horiz-adv-x="733" d="M104 14v871h121v-121q96 135 189 135q106 0 159 -106q41 -84 41 -203v-576h-122v496q0 74 -25 127q-33 70 -98 70q-68 0 -109 -68q-35 -57 -35 -129v-496h-121zM193 1069q39 113 104 113q23 0 74 -26t80 -26q55 0 77 56l37 -41q-2 -14 -10 -41q-8 -16 -43 -36.5 t-53 -20.5q-23 0 -72 25.5t-70 25.5q-25 0 -51 -21.5t-33 -46.5z" />
<glyph unicode="&#xf2;" horiz-adv-x="747" d="M94 451q0 160 64 288q80 164 221 164q145 0 223 -162q62 -126 62 -290q0 -168 -60 -293q-76 -160 -225 -160q-152 0 -227 160q-57 121 -58 293zM225 449q0 -272 156 -273q151 1 151 273q0 276 -153 276q-154 0 -154 -276zM274 1335h78l86 -352h-32z" />
<glyph unicode="&#xf3;" horiz-adv-x="757" d="M104 451q0 162 62 290q78 162 223 162t223 -162q62 -128 62 -290q0 -168 -60 -293q-76 -160 -225 -160q-152 0 -227 160q-57 121 -58 293zM236 449q0 -272 155 -273q152 1 152 273q0 276 -154 276t-153 -276zM391 983l86 352h78l-129 -352h-35z" />
<glyph unicode="&#xf4;" horiz-adv-x="761" d="M96 451q0 160 64 288q80 164 221 164q145 0 223 -162q62 -126 62 -290q0 -170 -58 -293q-76 -160 -227 -160q-152 0 -227 160q-57 121 -58 293zM221 983l123 352h78l123 -352h-53l-111 299l-109 -299h-51zM227 449q0 -272 156 -273q152 1 152 273q0 276 -154 276 t-154 -276z" />
<glyph unicode="&#xf5;" horiz-adv-x="776" d="M113 451q0 162 61 290q78 162 223 162t224 -162q61 -128 61 -290q0 -168 -59 -293q-76 -160 -226 -160q-152 0 -227 160q-57 121 -57 293zM217 1069q39 113 105 113q23 0 75 -26t78 -26q57 0 78 56l37 -41q-6 -31 -10 -39q-8 -18 -27 -31q-49 -29 -68 -28q-25 0 -74 25.5 t-69 25.5q-25 0 -51.5 -21.5t-32.5 -46.5zM244 449q0 -272 155 -273q152 1 152 273q0 276 -154 276t-153 -276z" />
<glyph unicode="&#xf6;" horiz-adv-x="790" d="M106 451q0 162 62 290q78 162 221 162q145 0 223 -162q62 -126 62 -290q0 -170 -58 -293q-76 -160 -227 -160q-154 0 -227 160q-55 119 -56 293zM199 1120q0 37 18.5 75t50.5 38q33 0 54 -41q14 -33 14 -72q0 -37 -14 -71q-20 -43 -54 -43q-33 0 -53 43q-16 35 -16 71z M236 449q0 -272 155 -273q154 1 154 273q0 276 -156 276q-154 0 -153 -276zM461 1120q0 39 14 72q20 41 55 41q33 0 54 -41q14 -33 14 -72q0 -37 -14 -71q-20 -43 -54 -43q-35 0 -53 43q-16 33 -16 71z" />
<glyph unicode="&#xf7;" horiz-adv-x="774" d="M80 444v156h633v-156h-633zM311 111q0 49 23 92q27 53 69 53q45 0 72 -53q23 -43 23 -92q0 -51 -23 -95q-27 -53 -72 -53t-71 53q-20 45 -21 95zM311 934q0 51 21 98q27 57 71 58q47 0 74 -58q21 -45 21 -98t-21 -98q-27 -57 -74 -58q-45 0 -71 58q-20 47 -21 98z" />
<glyph unicode="&#xf8;" horiz-adv-x="759" d="M100 453q0 178 56 295q72 158 229 157q152 0 227 -160q58 -122 58 -292q0 -178 -54 -297q-74 -158 -231 -158q-147 0 -225 162q-59 125 -60 293zM233 494q0 -80 39 -201l215 360q-55 63 -102 64q-78 0 -119 -76q-33 -61 -33 -147zM289 244q61 -55 98 -56q84 0 125 88 q29 66 29 162q0 63 -25 180z" />
<glyph unicode="&#xf9;" horiz-adv-x="727" d="M119 311v576h121v-494q0 -197 125 -196q68 0 108 67q33 55 33 129v494h121v-869h-121v121q-96 -135 -189 -135q-104 0 -157 107q-41 84 -41 200zM283 1335h77l86 -352h-34z" />
<glyph unicode="&#xfa;" horiz-adv-x="741" d="M117 311v576h121l2 -494q0 -197 122 -196q68 0 109 67q35 55 35 129v494h121v-869h-121v121q-98 -135 -191 -135q-104 0 -157 109q-41 82 -41 198zM332 983l86 352h78l-129 -352h-35z" />
<glyph unicode="&#xfb;" horiz-adv-x="708" d="M102 311v576h121l2 -494q0 -197 123 -196q68 0 109 67q35 55 35 129v494h120v-869h-120v121q-98 -135 -191 -135q-104 0 -158 109q-41 82 -41 198zM203 983l123 352h75l125 -352h-53l-111 299l-108 -299h-51z" />
<glyph unicode="&#xfc;" horiz-adv-x="708" d="M94 311v576h123v-494q0 -197 125 -196q68 0 107 67q35 57 34 129v494h121v-869h-121v121q-96 -135 -188 -135q-106 0 -160 107q-41 84 -41 200zM150 1120q0 39 14 72q20 41 55 41q33 0 53 -41q15 -33 15 -72q0 -37 -15 -71q-20 -43 -53 -43q-35 0 -53 43q-16 33 -16 71z M412 1120q0 39 14 72q20 41 55 41q33 0 54 -41q14 -33 14 -72q0 -37 -14 -71q-20 -43 -54 -43q-35 0 -53 43q-16 33 -16 71z" />
<glyph unicode="&#xfd;" horiz-adv-x="788" d="M111 887h139l168 -633l172 633h123l-324 -1241h-139l92 356zM332 983l86 352h78l-129 -352h-35z" />
<glyph unicode="&#xfe;" horiz-adv-x="724" d="M94 -279v1475h123v-516q88 184 170 184q123 0 188 -147q54 -115 54 -254q0 -150 -45 -270q-61 -168 -185 -168q-61 0 -104 30q-31 20 -78 80v-414h-123zM217 436q0 -80 37 -151q43 -88 117 -88q72 0 116 88q39 71 39 151t-37 154q-47 88 -118 88q-74 0 -117 -88 q-37 -72 -37 -154z" />
<glyph unicode="&#xff;" horiz-adv-x="776" d="M100 887h140l166 -633l174 633h120l-321 -1241h-139l92 356zM209 1120q0 39 14 72q20 41 53 41t54 -41q14 -33 14 -72q0 -37 -14 -71q-20 -43 -54 -43q-33 0 -53 43q-14 35 -14 71zM469 1120q0 39 14 72q20 41 56 41q33 0 53 -41q14 -33 14 -72q0 -37 -14 -71 q-20 -43 -53 -43q-35 0 -54 43q-16 33 -16 71z" />
<glyph unicode="&#x2c6;" horiz-adv-x="763" d="M244 983l123 352h77l123 -352h-53l-111 299l-108 -299h-51z" />
<glyph unicode="&#x2dc;" horiz-adv-x="782" d="M225 1069q39 113 105 113q23 0 74 -26t77 -26q57 0 80 56l35 -41q-6 -31 -10 -39q-8 -18 -27 -31q-49 -29 -67 -28q-25 0 -74 25.5t-70 25.5q-39 0 -84 -68z" />
<glyph unicode="&#x2000;" horiz-adv-x="803" />
<glyph unicode="&#x2001;" horiz-adv-x="1606" />
<glyph unicode="&#x2002;" horiz-adv-x="803" />
<glyph unicode="&#x2003;" horiz-adv-x="1606" />
<glyph unicode="&#x2004;" horiz-adv-x="535" />
<glyph unicode="&#x2005;" horiz-adv-x="401" />
<glyph unicode="&#x2006;" horiz-adv-x="267" />
<glyph unicode="&#x2007;" horiz-adv-x="267" />
<glyph unicode="&#x2008;" horiz-adv-x="200" />
<glyph unicode="&#x2009;" horiz-adv-x="321" />
<glyph unicode="&#x200a;" horiz-adv-x="89" />
<glyph unicode="&#x2010;" horiz-adv-x="460" d="M127 543v168h219v-168h-219z" />
<glyph unicode="&#x2011;" horiz-adv-x="460" d="M127 543v168h219v-168h-219z" />
<glyph unicode="&#x2012;" horiz-adv-x="460" d="M127 543v168h219v-168h-219z" />
<glyph unicode="&#x2013;" horiz-adv-x="1265" d="M127 543v168h1024v-168h-1024z" />
<glyph unicode="&#x2014;" horiz-adv-x="2289" d="M127 543v168h2048v-168h-2048z" />
<glyph unicode="&#x2018;" horiz-adv-x="311" d="M104 1020q0 225 107 250v-10q-63 -18 -68 -127l31 2q31 0 51 -43q15 -35 15 -72t-15 -72q-20 -43 -53 -43t-53 43q-14 35 -15 72z" />
<glyph unicode="&#x2019;" horiz-adv-x="311" d="M88 1081q0 39 16 72q18 43 54 43q33 0 53 -43q14 -35 14 -72q0 -225 -106 -250v11q61 18 65 127h-28q-35 0 -54 41q-14 33 -14 71z" />
<glyph unicode="&#x201a;" horiz-adv-x="317" d="M84 -125l59 492h78l-108 -492h-29z" />
<glyph unicode="&#x201c;" horiz-adv-x="528" d="M90 1020q0 225 109 250v-10q-63 -18 -68 -127l29 2q33 0 53 -43q14 -35 14 -72t-14 -72q-20 -43 -53 -43q-35 0 -54 43q-16 33 -16 72zM317 1020q0 225 107 250v-10q-61 -18 -68 -127l31 2q31 0 51 -43q15 -35 15 -72t-15 -72q-20 -43 -53 -43t-53 43q-14 35 -15 72z" />
<glyph unicode="&#x201d;" horiz-adv-x="507" d="M80 1081q0 37 14 72q20 43 53 43t54 -43q14 -35 14 -72q0 -225 -106 -250v11q61 18 67 127h-31q-33 0 -51 43q-14 33 -14 69zM305 1081q0 37 14 72q20 43 54 43q35 0 53 -43q16 -33 16 -72q0 -225 -108 -250v11q63 18 67 127h-28q-35 0 -54 41q-14 33 -14 71z" />
<glyph unicode="&#x2026;" horiz-adv-x="819" d="M113 129q0 39 16 72q20 43 53 43t51 -43q17 -35 17 -72t-14 -72q-20 -43 -54 -43q-35 0 -53 43q-16 33 -16 72zM350 129q0 39 17 72q20 43 53 43t51 -43q16 -35 16 -72t-14 -72q-20 -43 -53 -43q-35 0 -53 43q-16 33 -17 72zM588 129q0 37 16 72q20 43 53 43t52 -43 q16 -35 16 -72t-14 -72q-20 -43 -54 -43q-33 0 -53 43q-16 35 -16 72z" />
<glyph unicode="&#x202f;" horiz-adv-x="321" />
<glyph unicode="&#x205f;" horiz-adv-x="401" />
<glyph unicode="&#x25fc;" horiz-adv-x="890" d="M0 0v891h891v-891h-891z" />
</font>
</defs>
</svg>
